<svg width="34" height="28" viewBox="0 0 34 28" fill="none" xmlns="http://www.w3.org/2000/svg">
<path d="M30.6 27.2H3.4C2.49826 27.2 1.63346 26.8418 0.995837 26.2042C0.358213 25.5665 0 24.7017 0 23.8V3.2521C0.0381355 2.37625 0.413115 1.54897 1.04665 0.942991C1.68019 0.337013 2.52331 -0.000828306 3.4 1.5251e-06H30.6C31.5017 1.5251e-06 32.3665 0.358215 33.0042 0.995838C33.6418 1.63346 34 2.49827 34 3.4V23.8C34 24.7017 33.6418 25.5665 33.0042 26.2042C32.3665 26.8418 31.5017 27.2 30.6 27.2ZM3.4 6.5756V23.8H30.6V6.5756L17 15.64L3.4 6.5756ZM4.76 3.4L17 11.56L29.24 3.4H4.76Z" fill="#616161"/>
</svg>
