<svg width="27" height="34" viewBox="0 0 27 34" fill="none" xmlns="http://www.w3.org/2000/svg">
<path d="M23.9286 13.1607C23.9286 10.3049 22.7941 7.56605 20.7747 5.54669C18.7554 3.52732 16.0165 2.39286 13.1607 2.39286C10.3049 2.39286 7.56605 3.52732 5.54669 5.54669C3.52732 7.56605 2.39286 10.3049 2.39286 13.1607C2.39286 17.5779 5.92711 23.3351 13.1607 30.2314C20.3943 23.3351 23.9286 17.5779 23.9286 13.1607ZM13.1607 33.5C4.38611 25.5246 0 18.7432 0 13.1607C0 9.67028 1.38657 6.3228 3.85468 3.85468C6.3228 1.38657 9.67028 0 13.1607 0C16.6512 0 19.9986 1.38657 22.4667 3.85468C24.9349 6.3228 26.3214 9.67028 26.3214 13.1607C26.3214 18.7432 21.9353 25.5246 13.1607 33.5Z" fill="#616161"/>
<path d="M13.1609 16.75C14.1128 16.75 15.0257 16.3719 15.6989 15.6987C16.372 15.0256 16.7501 14.1127 16.7501 13.1607C16.7501 12.2088 16.372 11.2958 15.6989 10.6227C15.0257 9.9496 14.1128 9.57145 13.1609 9.57145C12.2089 9.57145 11.296 9.9496 10.6228 10.6227C9.94972 11.2958 9.57157 12.2088 9.57157 13.1607C9.57157 14.1127 9.94972 15.0256 10.6228 15.6987C11.296 16.3719 12.2089 16.75 13.1609 16.75ZM13.1609 19.1429C11.5743 19.1429 10.0527 18.5126 8.93084 17.3907C7.80897 16.2689 7.17871 14.7473 7.17871 13.1607C7.17871 11.5742 7.80897 10.0526 8.93084 8.93072C10.0527 7.80885 11.5743 7.17859 13.1609 7.17859C14.7474 7.17859 16.269 7.80885 17.3909 8.93072C18.5127 10.0526 19.143 11.5742 19.143 13.1607C19.143 14.7473 18.5127 16.2689 17.3909 17.3907C16.269 18.5126 14.7474 19.1429 13.1609 19.1429Z" fill="#616161"/>
</svg>
