<svg width="23" height="39" viewBox="0 0 23 39" fill="none" xmlns="http://www.w3.org/2000/svg">
<path d="M9.58333 26.8333C9.075 26.8333 8.58749 27.0353 8.22805 27.3947C7.8686 27.7542 7.66667 28.2417 7.66667 28.75C7.66667 29.2583 7.8686 29.7458 8.22805 30.1053C8.58749 30.4647 9.075 30.6667 9.58333 30.6667H13.4167C13.925 30.6667 14.4125 30.4647 14.772 30.1053C15.1314 29.7458 15.3333 29.2583 15.3333 28.75C15.3333 28.2417 15.1314 27.7542 14.772 27.3947C14.4125 27.0353 13.925 26.8333 13.4167 26.8333H9.58333ZM5.75 0C4.22501 0 2.76247 0.605802 1.68414 1.68414C0.605802 2.76247 0 4.22501 0 5.75V32.5833C0 34.1083 0.605802 35.5709 1.68414 36.6492C2.76247 37.7275 4.22501 38.3333 5.75 38.3333H17.25C18.775 38.3333 20.2375 37.7275 21.3159 36.6492C22.3942 35.5709 23 34.1083 23 32.5833V5.75C23 4.22501 22.3942 2.76247 21.3159 1.68414C20.2375 0.605802 18.775 0 17.25 0H5.75ZM3.83333 5.75C3.83333 5.24167 4.03527 4.75416 4.39471 4.39471C4.75416 4.03527 5.24167 3.83333 5.75 3.83333H17.25C17.7583 3.83333 18.2458 4.03527 18.6053 4.39471C18.9647 4.75416 19.1667 5.24167 19.1667 5.75V32.5833C19.1667 33.0917 18.9647 33.5792 18.6053 33.9386C18.2458 34.2981 17.7583 34.5 17.25 34.5H5.75C5.24167 34.5 4.75416 34.2981 4.39471 33.9386C4.03527 33.5792 3.83333 33.0917 3.83333 32.5833V5.75Z" fill="#616161"/>
</svg>
