<svg width="100" height="36" viewBox="0 0 100 36" fill="none" xmlns="http://www.w3.org/2000/svg">
<g clip-path="url(#clip0_3_2178)">
<path fill-rule="evenodd" clip-rule="evenodd" d="M30.4307 35.2941H41.6409L65.7878 0H56.7261C54.6828 0 53.3737 0.840047 52.902 1.57539L30.4307 35.2941Z" fill="white"/>
<path fill-rule="evenodd" clip-rule="evenodd" d="M38.7101 0.112061H30.166L40.1937 14.7195L30.3059 30.1205H38.8488L49.2313 14.7195L38.7101 0.112061Z" fill="white"/>
<path fill-rule="evenodd" clip-rule="evenodd" d="M17.5631 20.1843L10.1894 15.7294C7.13577 13.6874 6.02463 10.4388 7.012 6.35623C7.99897 2.67506 12.0714 0.112061 16.0512 0.112061H26.1216L32.2724 8.65282H18.0461C16.3515 8.65282 17.2752 10.0738 18.1598 10.5666L27.5908 16.0386C30.8158 17.8517 30.95 22.1122 30.4154 24.3097C29.5059 28.3301 26.3522 30.9181 20.0982 30.9181H0L5.98632 21.8716H17.532C18.3871 21.8716 18.3049 20.6326 17.5631 20.1843Z" fill="white"/>
<path fill-rule="evenodd" clip-rule="evenodd" d="M81.6706 30.9176L91.2391 16.9259V30.9176H99.9996V0H93.7525C92.7232 0 91.8829 0.212639 91.2391 0.518258C90.6041 0.81943 90.1634 1.20994 89.9296 1.57499L81.4887 14.2941V0H75.2403C74.2118 0 73.372 0.212639 72.7286 0.517045C72.0936 0.81943 71.6505 1.20954 71.417 1.57499L51.9062 30.9799H63.1165L72.7282 16.9234V30.9176H81.6702H81.6706Z" fill="white"/>
</g>
<defs>
<clipPath id="clip0_3_2178">
<rect width="100" height="35.2941" fill="white"/>
</clipPath>
</defs>
</svg>
