<svg width="142" height="50" viewBox="0 0 142 50" fill="none" xmlns="http://www.w3.org/2000/svg">
<g clip-path="url(#clip0_3_4)">
<path fill-rule="evenodd" clip-rule="evenodd" d="M43.1104 50H58.9915L93.1996 0H80.3622C77.4675 0 75.6129 1.19007 74.9447 2.23181L43.1104 50Z" fill="#262626"/>
<path fill-rule="evenodd" clip-rule="evenodd" d="M54.8394 0.158691H42.7354L56.9413 20.8526L42.9335 42.6707H55.0359L69.7445 20.8526L54.8394 0.158691Z" fill="#262626"/>
<path fill-rule="evenodd" clip-rule="evenodd" d="M24.881 28.5943L14.435 22.2832C10.109 19.3905 8.53489 14.7883 9.93366 9.0046C11.3319 3.7896 17.1012 0.158691 22.7391 0.158691H37.0056L45.7193 12.2581H25.5653C23.1647 12.2581 24.4732 14.2711 25.7263 14.9693L39.087 22.7213C43.6557 25.2899 43.8459 31.3255 43.0885 34.4387C41.8 40.1342 37.3323 43.8006 28.4725 43.8006H0L8.48063 30.9848H24.837C26.0485 30.9848 25.9319 29.2295 24.881 28.5943Z" fill="#262626"/>
<path fill-rule="evenodd" clip-rule="evenodd" d="M115.7 43.8L129.256 23.9783V43.8H141.666V0H132.816C131.358 0 130.168 0.301239 129.256 0.734199C128.356 1.16086 127.732 1.71409 127.401 2.23123L115.443 20.25V0H106.591C105.134 0 103.944 0.301239 103.032 0.732481C102.133 1.16086 101.505 1.71351 101.174 2.23123L73.5342 43.8882H89.4154L103.032 23.9749V43.8H115.7H115.7Z" fill="#262626"/>
</g>
<defs>
<clipPath id="clip0_3_4">
<rect width="141.667" height="50" fill="white"/>
</clipPath>
</defs>
</svg>
